<svg width="24" height="24" viewBox="0 0 24 24" fill="none" xmlns="http://www.w3.org/2000/svg">
<path d="M17.5556 2C19.9357 2 21.879 3.87108 21.9946 6.22262L22 6.44444V17.5556C22 19.9357 20.1289 21.879 17.7774 21.9946L17.5556 22H6.44444C4.06423 22 2.12102 20.1289 2.00544 17.7774L2 17.5556V6.44444C2 4.06423 3.87108 2.12102 6.22262 2.00544L6.44444 2H17.5556ZM17.5556 4.22222H6.44444C5.27293 4.22222 4.31315 5.12875 4.22832 6.2786L4.22222 6.44444V17.5556C4.22222 18.7271 5.12875 19.6869 6.2786 19.7717L6.44444 19.7778H17.5556C18.7271 19.7778 19.6869 18.8713 19.7717 17.7214L19.7778 17.5556V6.44444C19.7778 5.27293 18.8713 4.31315 17.7214 4.22832L17.5556 4.22222ZM15.8368 8.91645L16.0754 8.60601C16.4159 8.09542 17.1058 7.95745 17.6163 8.29784C18.1269 8.63823 18.2649 9.32809 17.9246 9.83867C17.602 10.3226 17.0464 11.0121 16.2953 11.7054C16.1343 11.8541 15.9716 11.9957 15.807 12.1298C17.0267 12.7792 18.0179 13.7737 18.5493 14.8366C18.8238 15.3854 18.6013 16.0528 18.0524 16.3272C17.5036 16.6017 16.8362 16.3792 16.5618 15.8303C16.0547 14.8163 14.7393 13.8251 13.3448 13.6226L13.1118 13.5963L13.1111 15.3334C13.1111 15.9471 12.6137 16.4446 12 16.4446C8.12173 16.4446 5.33333 13.2578 5.33333 9.22234C5.33333 8.60869 5.8308 8.11123 6.44444 8.11123C7.05809 8.11123 7.55556 8.60869 7.55556 9.22234C7.55556 11.3048 8.64229 13.3317 10.6608 14.0113L10.8889 14.0812V9.22234C10.8889 8.59042 11.3982 8.14594 12 8.11123C12.5259 8.11123 12.9666 8.47672 13.0818 8.96758L13.1037 9.09277L13.1117 11.2039C13.6637 10.9748 14.2292 10.5884 14.788 10.0726C15.174 9.71632 15.5145 9.32592 15.8368 8.91645Z" fill="white"/>
</svg>
